<svg width="30" height="30" viewBox="0 0 30 30" fill="none" xmlns="http://www.w3.org/2000/svg">
<g clip-path="url(#clip0_211_986)">
<path d="M14.2528 12.4812C12.4872 13.0025 10.3832 13.2712 7.9482 13.2887C8.45212 11.2212 9.83696 9.50125 11.6847 8.55875C12.6514 9.82875 13.5062 11.1375 14.2528 12.4812ZM15.4535 14.8937C15.2992 14.5437 15.1374 14.195 14.967 13.85C12.9488 14.4875 10.5362 14.8113 7.74539 14.815L7.73544 15C7.73544 16.755 8.36254 18.365 9.40272 19.6187C10.9779 17.2425 12.9998 15.6637 15.4535 14.8937ZM10.5138 20.695C12.466 22.2262 15.0814 22.6813 17.5114 21.74C17.1979 19.88 16.7027 18.065 16.0308 16.3C13.7675 16.9775 11.9435 18.4425 10.5138 20.695ZM19.3168 9.2825C18.1012 8.34 16.5832 7.77125 14.9309 7.77125C14.3212 7.77125 13.7314 7.85625 13.1665 8.00125C14.1171 9.28625 14.9595 10.6087 15.6986 11.9662C17.2365 11.3112 18.4409 10.4163 19.3168 9.2825ZM29.8618 15C29.8618 23.2837 23.1765 30 14.9309 30C6.6853 30 0 23.2837 0 15C0 6.71625 6.6853 0 14.9309 0C23.1765 0 29.8618 6.71625 29.8618 15ZM23.6406 15C23.6406 10.1675 19.7399 6.25 14.9309 6.25C10.1219 6.25 6.2212 10.1675 6.2212 15C6.2212 19.8325 10.1219 23.75 14.9309 23.75C19.7399 23.75 23.6406 19.8325 23.6406 15ZM16.3941 13.3138C16.5894 13.7188 16.7736 14.1275 16.9503 14.5387C18.518 14.2675 20.2363 14.2838 22.1052 14.5913C22.0143 12.9763 21.4009 11.4988 20.4205 10.3375C19.4164 11.5938 18.0688 12.585 16.3941 13.3138ZM17.5313 15.9787C18.1398 17.615 18.6076 19.2925 18.9236 21.0075C20.5561 19.9075 21.712 18.1525 22.0305 16.1213C20.3918 15.8363 18.8925 15.7862 17.5313 15.9787Z" fill="#8D9AAB"/>
</g>
<defs>
<clipPath id="clip0_211_986">
<rect width="29.8618" height="30" fill="white"/>
</clipPath>
</defs>
</svg>
