<svg width="30" height="30" viewBox="0 0 30 30" fill="none" xmlns="http://www.w3.org/2000/svg">
<g clip-path="url(#clip0_211_984)">
<path d="M14.9309 0C6.6853 0 0 6.71625 0 15C0 23.2837 6.6853 30 14.9309 30C23.1765 30 29.8618 23.2837 29.8618 15C29.8618 6.71625 23.1765 0 14.9309 0ZM12.4424 20H9.95392V12.5H12.4424V20ZM11.1982 11.3863C10.4429 11.3863 9.82949 10.7662 9.82949 10C9.82949 9.235 10.4417 8.61375 11.1982 8.61375C11.9547 8.61375 12.5668 9.235 12.5668 10C12.5668 10.7662 11.9534 11.3863 11.1982 11.3863ZM21.1521 20H18.6661V16.4237C18.6661 14.0725 16.1751 14.2712 16.1751 16.4237V20H13.6866V12.5H16.1751V13.8663C17.2601 11.8463 21.1521 11.6962 21.1521 15.8012V20Z" fill="#8D9AAB"/>
</g>
<defs>
<clipPath id="clip0_211_984">
<rect width="29.8618" height="30" fill="white"/>
</clipPath>
</defs>
</svg>
